<?xml version="1.0" encoding="UTF-8"?>
<svg width="38px" height="38px" viewBox="0 0 38 38" version="1.1" xmlns="http://www.w3.org/2000/svg" xmlns:xlink="http://www.w3.org/1999/xlink">
    <!-- Generator: Sketch 55.2 (78181) - https://sketchapp.com -->
    <title>Wolfram_Alpha_December_2016</title>
    <desc>Created with Sketch.</desc>
    <g id="Page-1" stroke="none" stroke-width="1" fill="none" fill-rule="evenodd">
        <g id="Wolfram_Alpha_December_2016" fill-rule="nonzero">
            <g id="Group">
                <polyline id="Shape" fill="#F16850" points="38 24.87 29.9172973 26.55 30.7389189 34.37 23.1697297 31.21 19 38 14.8302703 31.21 7.26108108 34.37 8.0827027 26.55 0 24.87 5.50486486 19 0 13.13 8.0827027 11.45 7.26108108 3.63 14.8302703 6.79 19 0 23.1697297 6.79 30.7389189 3.63 29.9172973 11.46 38 13.13 32.4951351 19"></polyline>
                <polyline id="Shape" fill="#FD694F" points="19 11.86 14.8302703 6.79 7.26108108 3.63 11.7697297 9.41"></polyline>
                <polyline id="Shape" fill="#FF3413" points="8.0827027 11.45 0 13.13 5.50486486 19 11.9751351 16.71"></polyline>
                <polyline id="Shape" fill="#DC1D23" points="11.7697297 9.41 7.26108108 3.63 8.0827027 11.45 11.9751351 16.71"></polyline>
                <polyline id="Shape" fill="#FF9281" points="23.1697297 6.79 19 0 14.8302703 6.79 19 11.86"></polyline>
                <polyline id="Shape" fill="#FF8B79" points="32.4951351 19 38 13.13 29.9172973 11.45 26.0248649 16.71"></polyline>
                <polyline id="Shape" fill="#FD694F" points="26.0248649 16.71 29.9172973 11.45 30.7491892 3.63 26.2302703 9.41"></polyline>
                <polyline id="Shape" fill="#EF5240" points="26.2302703 9.41 30.7491892 3.63 23.1697297 6.79 19 11.86"></polyline>
                <polyline id="Shape" fill="#FF482C" points="30.7081081 22.5 38 24.87 32.4951351 19 26.0248649 16.71"></polyline>
                <polyline id="Shape" fill="#EC2101" points="11.9751351 16.71 5.50486486 19 0 24.87 7.29189189 22.5"></polyline>
                <polyline id="Shape" fill="#D21C22" points="19 30.59 19 38 23.1697297 31.21 23.3443243 24.56"></polyline>
                <polyline id="Shape" fill="#C90901" points="30.7081081 22.5 23.3443243 24.56 29.9172973 26.55 38 24.87"></polyline>
                <polyline id="Shape" fill="#EC2101" points="23.1697297 31.21 30.7389189 34.37 29.9172973 26.55 23.3443243 24.56"></polyline>
                <polyline id="Shape" fill="#B6171E" points="7.29189189 22.5 0 24.87 8.0827027 26.54 14.6556757 24.56"></polyline>
                <polyline id="Shape" fill="#B4151B" points="14.6556757 24.56 14.8302703 31.21 19 38 19 30.59"></polyline>
                <polyline id="Shape" fill="#D21C22" points="8.0827027 26.54 7.26108108 34.37 14.8302703 31.21 14.6556757 24.56"></polyline>
                <polyline id="Shape" fill="#E63320" points="26.0248649 16.71 26.2302703 9.41 19 11.86 19 18.96"></polyline>
                <polyline id="Shape" fill="#FF4527" points="19 11.86 11.7697297 9.41 11.9751351 16.71 19 18.96"></polyline>
                <polyline id="Shape" fill="#FF9281" points="14.6556757 24.56 19 30.59 23.3443243 24.56 19 18.96"></polyline>
                <polyline id="Shape" fill="#FD684D" points="19 18.96 23.3443243 24.56 30.7081081 22.5 26.0248649 16.71"></polyline>
                <polyline id="Shape" fill="#FD745C" points="11.9751351 16.71 7.29189189 22.5 14.6556757 24.56 19 18.96"></polyline>
            </g>
        </g>
    </g>
</svg>