<?xml version="1.0" encoding="UTF-8"?>
<svg width="257px" height="39px" viewBox="0 0 257 39" version="1.1" xmlns="http://www.w3.org/2000/svg" xmlns:xlink="http://www.w3.org/1999/xlink">
    <!-- Generator: Sketch 41.2 (35397) - http://www.bohemiancoding.com/sketch -->
    <title>Wolfram_Alpha_December_2016</title>
    <desc>Created with Sketch.</desc>
    <defs/>
    <g id="Page-1" stroke="none" stroke-width="1" fill="none" fill-rule="evenodd">
        <g id="Wolfram_Alpha_December_2016">
            <g id="Group" transform="translate(41.000000, 3.000000)" fill="#DD1100">
                <path d="M30.47,3.03 L26.73,3.03 L22.11,23.04 L17.47,3.2 L17.43,3.03 L13.28,3.03 L8.68,22.88 L4.14,3.03 L0.34,3.03 L6.37,28.78 L6.41,28.95 L10.7,28.95 L15.31,9.27 L19.87,28.78 L19.9,28.95 L24.27,28.95 L30.4,3.3 L30.47,3.03 Z M38.73,8.65 C35.95,8.65 33.79,9.53 32.3,11.27 C30.82,13 30.07,15.64 30.07,19.13 C30.07,22.56 30.82,25.17 32.29,26.9 C33.77,28.64 35.94,29.52 38.73,29.52 C41.52,29.52 43.68,28.63 45.14,26.87 C46.59,25.12 47.33,22.51 47.33,19.13 C47.33,15.71 46.6,13.08 45.15,11.32 C43.69,9.54 41.53,8.65 38.73,8.65 L38.73,8.65 Z M42.43,24.61 C41.62,25.76 40.41,26.32 38.73,26.32 C36.97,26.32 35.73,25.75 34.94,24.59 C34.15,23.42 33.75,21.57 33.75,19.11 C33.75,16.55 34.17,14.67 34.99,13.52 C35.79,12.39 37.05,11.81 38.74,11.81 C40.4,11.81 41.6,12.37 42.43,13.51 C43.26,14.66 43.68,16.54 43.68,19.11 C43.66,21.6 43.25,23.45 42.43,24.61 L42.43,24.61 Z M50.89,1.1 L54.45,1.1 L54.45,28.95 L50.89,28.95 L50.89,1.1 Z M69.84,1.26 C68.72,0.77 67.45,0.52 66.05,0.52 C63.8,0.52 62.2,1.1 61.3,2.25 C60.4,3.38 59.95,5.16 59.95,7.53 L59.95,9.19 L57.14,9.19 L57.14,12.27 L59.95,12.27 L59.95,28.93 L63.51,28.93 L63.51,12.28 L67.76,12.28 L67.76,9.2 L63.51,9.2 L63.51,7.54 C63.51,6 63.7,4.96 64.09,4.46 C64.46,3.97 65.14,3.72 66.13,3.72 C66.54,3.72 67,3.79 67.52,3.92 C68.04,4.05 68.47,4.21 68.8,4.38 L69.02,4.5 L70.01,1.35 L69.84,1.26 Z M79.54,8.9 C78.32,8.9 77.2,9.26 76.2,9.98 C75.36,10.58 74.55,11.27 73.77,12.02 L73.77,9.2 L70.21,9.2 L70.21,28.95 L73.77,28.95 L73.77,15.47 C74.88,14.36 75.86,13.59 76.69,13.17 C77.53,12.75 78.41,12.54 79.3,12.54 C79.9,12.54 80.36,12.61 80.67,12.74 L80.91,12.84 L81.68,9.39 L81.54,9.31 C81.03,9.04 80.36,8.9 79.54,8.9 L79.54,8.9 Z M96.2,10.21 C94.97,9.17 92.94,8.65 90.15,8.65 C88.35,8.65 86.82,8.94 85.6,9.53 C84.37,10.12 83.43,10.98 82.83,12.08 L82.73,12.26 L85.66,14.06 L85.77,13.87 C86.06,13.37 86.54,12.9 87.21,12.47 C87.87,12.04 88.84,11.82 90.08,11.82 C91.48,11.82 92.58,12.08 93.37,12.6 C94.12,13.1 94.51,14.06 94.51,15.46 L94.51,16.2 L89.99,16.61 C88.11,16.83 86.66,17.21 85.66,17.73 C84.65,18.26 83.87,18.98 83.33,19.89 C82.8,20.8 82.53,21.95 82.53,23.31 C82.53,25.11 83.05,26.61 84.07,27.77 C85.1,28.94 86.57,29.53 88.45,29.53 C89.72,29.53 90.88,29.24 91.89,28.66 C92.76,28.16 93.64,27.54 94.51,26.8 L94.51,28.96 L98.07,28.96 L98.07,15.6 C98.07,13.07 97.44,11.25 96.2,10.21 Z M89.41,26.25 C88.33,26.25 87.51,26.01 86.98,25.55 C86.46,25.09 86.2,24.31 86.2,23.23 C86.2,22.08 86.59,21.23 87.39,20.63 C88.2,20.02 89.65,19.63 91.68,19.45 L94.51,19.18 L94.51,23.55 C94.13,23.85 93.75,24.16 93.36,24.47 C92.95,24.8 92.52,25.09 92.08,25.35 C91.64,25.61 91.19,25.83 90.74,26 C90.3,26.17 89.85,26.25 89.41,26.25 L89.41,26.25 Z M127,11.69 C126.66,10.71 126.11,9.95 125.37,9.43 C124.63,8.91 123.64,8.65 122.44,8.65 C121.14,8.65 119.94,9.03 118.87,9.77 C117.92,10.43 116.98,11.25 116.07,12.2 C115.78,11.04 115.27,10.16 114.54,9.6 C113.73,8.97 112.65,8.65 111.32,8.65 C110.12,8.65 108.97,9.01 107.92,9.72 C107.04,10.31 106.22,11 105.48,11.75 L105.48,9.2 L101.92,9.2 L101.92,28.95 L105.48,28.95 L105.48,15.18 C106.45,14.21 107.38,13.45 108.26,12.93 C109.13,12.41 109.9,12.14 110.54,12.14 C111.23,12.14 111.74,12.26 112.05,12.49 C112.36,12.72 112.58,13.14 112.72,13.72 C112.86,14.34 112.93,15.56 112.93,17.35 L112.93,28.94 L116.49,28.94 L116.49,15.18 C117.72,14.03 118.73,13.22 119.48,12.79 C120.23,12.36 120.92,12.14 121.51,12.14 C122.21,12.14 122.73,12.25 123.05,12.46 C123.37,12.67 123.59,13.05 123.72,13.61 C123.86,14.2 123.93,15.46 123.93,17.35 L123.93,28.94 L127.49,28.94 L127.49,15.84 C127.5,14.05 127.33,12.65 127,11.69 L127,11.69 Z" id="Shape"/>
            </g>
            <g id="Group" transform="translate(170.000000, 4.000000)" fill="#FF7D00">
                <path d="M14.27,2.03 L9.59,2.03 L0.82,27.94 L4.72,27.94 L6.87,21.31 L16.85,21.31 L19.04,27.94 L23.05,27.94 L14.33,2.17 L14.27,2.03 L14.27,2.03 Z M15.65,17.79 L8.03,17.79 L11.84,6.27 L15.65,17.79 Z M25.43,0.1 L28.99,0.1 L28.99,27.95 L25.43,27.95 L25.43,0.1 Z M42.21,7.65 C41.03,7.65 39.9,7.9 38.87,8.39 C38.01,8.8 37.24,9.29 36.58,9.86 L36.58,8.2 L33.02,8.2 L33.02,35 L36.58,35 L36.58,26.6 C38.17,27.87 39.89,28.51 41.71,28.51 C44.17,28.51 46.12,27.54 47.53,25.62 C48.92,23.72 49.62,21.13 49.62,17.93 C49.62,14.66 48.97,12.1 47.68,10.34 C46.39,8.55 44.55,7.65 42.21,7.65 L42.21,7.65 Z M45.96,18.01 C45.96,20.52 45.51,22.37 44.64,23.53 C43.76,24.69 42.67,25.25 41.31,25.25 C39.74,25.25 38.16,24.59 36.6,23.28 L36.6,13.26 C37.24,12.65 38,12.1 38.86,11.63 C39.74,11.15 40.67,10.9 41.62,10.9 C44.53,10.89 45.96,13.22 45.96,18.01 L45.96,18.01 Z M62.71,7.65 C61.49,7.65 60.25,8.01 59.05,8.72 C58.02,9.33 57.08,10.02 56.27,10.78 L56.27,0.1 L52.71,0.1 L52.71,27.95 L56.27,27.95 L56.27,14.18 C57.23,13.34 58.24,12.61 59.26,12.02 C60.29,11.43 61.2,11.13 61.96,11.13 C62.72,11.13 63.29,11.26 63.66,11.52 C64.03,11.77 64.3,12.18 64.46,12.74 C64.63,13.32 64.72,14.54 64.72,16.35 L64.72,27.94 L68.28,27.94 L68.28,14.84 C68.28,12.27 67.83,10.41 66.94,9.32 C66.04,8.21 64.62,7.65 62.71,7.65 L62.71,7.65 Z M85.09,9.21 C83.86,8.17 81.83,7.65 79.04,7.65 C77.24,7.65 75.71,7.94 74.49,8.53 C73.26,9.12 72.32,9.98 71.72,11.08 L71.62,11.26 L74.55,13.06 L74.66,12.87 C74.95,12.37 75.43,11.9 76.1,11.47 C76.76,11.04 77.73,10.82 78.97,10.82 C80.37,10.82 81.47,11.08 82.26,11.6 C83.01,12.1 83.4,13.06 83.4,14.46 L83.4,15.2 L78.88,15.61 C77,15.83 75.55,16.21 74.55,16.73 C73.54,17.26 72.76,17.98 72.22,18.89 C71.69,19.8 71.42,20.95 71.42,22.31 C71.42,24.11 71.94,25.61 72.96,26.77 C73.99,27.94 75.46,28.53 77.34,28.53 C78.61,28.53 79.77,28.24 80.78,27.66 C81.65,27.16 82.53,26.54 83.4,25.8 L83.4,27.96 L86.96,27.96 L86.96,14.6 C86.95,12.07 86.32,10.25 85.09,9.21 L85.09,9.21 Z M78.29,25.25 C77.21,25.25 76.39,25.01 75.86,24.55 C75.34,24.09 75.08,23.31 75.08,22.23 C75.08,21.08 75.47,20.23 76.27,19.63 C77.08,19.02 78.53,18.63 80.56,18.45 L83.39,18.18 L83.39,22.55 C83.01,22.85 82.63,23.16 82.24,23.47 C81.83,23.8 81.4,24.09 80.96,24.35 C80.52,24.61 80.07,24.83 79.62,25 C79.18,25.17 78.74,25.25 78.29,25.25 L78.29,25.25 Z" id="Shape"/>
            </g>
            <g id="Group">
                <polyline id="Shape" fill="#F16850" points="37 24.87 29.13 26.55 29.93 34.37 22.56 31.21 18.5 38 14.44 31.21 7.07 34.37 7.87 26.55 0 24.87 5.36 19 0 13.13 7.87 11.45 7.07 3.63 14.44 6.79 18.5 0 22.56 6.79 29.93 3.63 29.13 11.46 37 13.13 31.64 19"/>
                <polyline id="Shape" fill="#FD694F" points="18.5 11.86 14.44 6.79 7.07 3.63 11.46 9.41"/>
                <polyline id="Shape" fill="#FF3413" points="7.87 11.45 0 13.13 5.36 19 11.66 16.71"/>
                <polyline id="Shape" fill="#DC1D23" points="11.46 9.41 7.07 3.63 7.87 11.45 11.66 16.71"/>
                <polyline id="Shape" fill="#FF9281" points="22.56 6.79 18.5 0 14.44 6.79 18.5 11.86"/>
                <polyline id="Shape" fill="#FF8B79" points="31.64 19 37 13.13 29.13 11.45 25.34 16.71"/>
                <polyline id="Shape" fill="#FD694F" points="25.34 16.71 29.13 11.45 29.94 3.63 25.54 9.41"/>
                <polyline id="Shape" fill="#EF5240" points="25.54 9.41 29.94 3.63 22.56 6.79 18.5 11.86"/>
                <polyline id="Shape" fill="#FF482C" points="29.9 22.5 37 24.87 31.64 19 25.34 16.71"/>
                <polyline id="Shape" fill="#EC2101" points="11.66 16.71 5.36 19 0 24.87 7.1 22.5"/>
                <polyline id="Shape" fill="#D21C22" points="18.5 30.59 18.5 38 22.56 31.21 22.73 24.56"/>
                <polyline id="Shape" fill="#C90901" points="29.9 22.5 22.73 24.56 29.13 26.55 37 24.87"/>
                <polyline id="Shape" fill="#EC2101" points="22.56 31.21 29.93 34.37 29.13 26.55 22.73 24.56"/>
                <polyline id="Shape" fill="#B6171E" points="7.1 22.5 0 24.87 7.87 26.54 14.27 24.56"/>
                <polyline id="Shape" fill="#B4151B" points="14.27 24.56 14.44 31.21 18.5 38 18.5 30.59"/>
                <polyline id="Shape" fill="#D21C22" points="7.87 26.54 7.07 34.37 14.44 31.21 14.27 24.56"/>
                <polyline id="Shape" fill="#E63320" points="25.34 16.71 25.54 9.41 18.5 11.86 18.5 18.96"/>
                <polyline id="Shape" fill="#FF4527" points="18.5 11.86 11.46 9.41 11.66 16.71 18.5 18.96"/>
                <polyline id="Shape" fill="#FF9281" points="14.27 24.56 18.5 30.59 22.73 24.56 18.5 18.96"/>
                <polyline id="Shape" fill="#FD684D" points="18.5 18.96 22.73 24.56 29.9 22.5 25.34 16.71"/>
                <polyline id="Shape" fill="#FD745C" points="11.66 16.71 7.1 22.5 14.27 24.56 18.5 18.96"/>
            </g>
        </g>
    </g>
</svg>